<?xml version="1.0" standalone="no"?>
<!DOCTYPE svg PUBLIC "-//W3C//DTD SVG 20010904//EN"
 "http://www.w3.org/TR/2001/REC-SVG-20010904/DTD/svg10.dtd">
<svg version="1.0" xmlns="http://www.w3.org/2000/svg"
 width="180.000000pt" height="180.000000pt" viewBox="0 0 180.000000 180.000000"
 preserveAspectRatio="xMidYMid meet">
<metadata>
Created by potrace 1.11, written by Peter Selinger 2001-2013
</metadata>
<g transform="translate(0.000000,180.000000) scale(0.100000,-0.100000)"
fill="#000000" stroke="none">
<path d="M715 1602 c-79 -48 -135 -148 -143 -252 -4 -57 3 -90 53 -265 31
-110 60 -209 64 -220 8 -19 -38 -151 -63 -184 -27 -35 -89 -28 -102 13 -4 11
-7 135 -7 276 1 272 -5 307 -47 330 -28 15 -81 15 -109 1 -39 -21 -51 -62 -51
-176 0 -104 0 -105 24 -105 26 0 72 40 82 72 9 29 -3 82 -25 105 -13 14 -16
24 -9 36 10 19 53 23 64 6 3 -6 6 -130 6 -275 -1 -160 3 -277 10 -295 14 -40
67 -79 108 -79 31 0 32 -1 26 -32 -6 -31 -39 -71 -67 -80 -9 -3 -13 -32 -14
-96 l-1 -91 28 -6 c32 -7 78 -58 78 -86 0 -18 8 -19 105 -19 l105 0 -12 25
c-12 27 -42 39 -96 38 -62 -1 -129 112 -87 147 12 10 24 7 62 -15 125 -72 120
-70 150 -60 15 6 34 23 41 38 11 23 11 31 -2 54 -59 106 -70 139 -70 198 1
104 61 202 152 247 42 20 65 23 230 28 l184 5 29 33 c31 35 32 41 30 196 0 43
-2 81 -5 83 -2 2 -16 -6 -31 -19 -22 -19 -27 -33 -28 -73 l-2 -50 -107 -3
c-70 -2 -108 1 -108 8 0 5 0 12 0 15 0 16 -34 83 -53 103 -23 25 -31 29 -136
68 -71 26 -101 48 -101 75 0 17 3 17 35 3 44 -18 89 -18 105 1 15 18 7 31 -27
40 -42 10 -62 33 -57 63 8 43 33 49 112 26 17 -5 22 -2 22 13 0 37 -26 53
-164 103 -76 27 -141 50 -145 50 -3 0 -20 -8 -36 -18z"/>
<path d="M1241 1512 c-18 -33 -13 -55 20 -100 17 -24 30 -44 28 -46 -2 -1 -38
-29 -79 -61 -41 -32 -76 -60 -78 -61 -2 -1 13 -19 32 -40 20 -21 36 -41 36
-45 0 -4 4 -19 10 -34 l10 -26 67 52 c38 29 78 64 90 78 25 29 30 79 11 114
-9 19 -107 155 -129 181 -4 4 -12 -1 -18 -12z"/>
<path d="M1128 725 c-2 -2 -21 -6 -43 -8 -90 -11 -260 -80 -248 -101 39 -66
56 -86 72 -86 11 0 34 -12 51 -26 28 -24 31 -31 29 -78 -2 -48 3 -60 57 -149
l59 -97 113 0 c61 0 112 4 112 9 0 5 -8 19 -18 31 -15 18 -29 23 -68 23 l-49
0 -53 89 -54 89 50 53 c82 86 118 185 81 221 -14 13 -84 36 -91 30z"/>
</g>
</svg>
